<svg id="Capa_1" enable-background="new 0 0 512 512" height="512" viewBox="0 0 512 512" width="512" xmlns="http://www.w3.org/2000/svg"><g><path d="m437.02 74.98c-48.353-48.351-112.64-74.98-181.02-74.98s-132.667 26.629-181.02 74.98c-48.351 48.353-74.98 112.64-74.98 181.02s26.629 132.667 74.98 181.02c48.353 48.351 112.64 74.98 181.02 74.98s132.667-26.629 181.02-74.98c48.351-48.353 74.98-112.64 74.98-181.02s-26.629-132.667-74.98-181.02zm-21.214 340.826c-42.686 42.686-99.439 66.194-159.806 66.194s-117.12-23.508-159.806-66.194-66.194-99.439-66.194-159.806 23.508-117.12 66.194-159.806 99.439-66.194 159.806-66.194 117.12 23.508 159.806 66.194 66.194 99.439 66.194 159.806-23.508 117.12-66.194 159.806z"/><path d="m256 241c-72.07 0-130.704 58.634-130.704 130.704v15h261.408v-15c0-72.07-58.634-130.704-130.704-130.704zm-99.589 115.704c7.266-48.438 49.158-85.704 99.589-85.704s92.323 37.266 99.59 85.704z"/><path d="m174.006 198c27.647 0 50.14-22.493 50.14-50.141s-22.493-50.14-50.14-50.14-50.141 22.493-50.141 50.14 22.493 50.141 50.141 50.141zm0-70.281c11.105 0 20.14 9.035 20.14 20.14s-9.035 20.141-20.14 20.141-20.141-9.035-20.141-20.141 9.035-20.14 20.141-20.14z"/><path d="m337.994 97.719c-27.647 0-50.141 22.493-50.141 50.14s22.494 50.141 50.141 50.141 50.141-22.493 50.141-50.141-22.493-50.14-50.141-50.14zm0 70.281c-11.105 0-20.141-9.035-20.141-20.141s9.035-20.14 20.141-20.14 20.141 9.035 20.141 20.14-9.035 20.141-20.141 20.141z"/></g></svg>