<?xml version="1.0" encoding="UTF-8"?>
<svg xmlns="http://www.w3.org/2000/svg" id="Layer_1" data-name="Layer 1" viewBox="0 0 512 512" width="512" height="512"><path d="M59,246.673a6,6,0,0,0-6,6v81.614a6,6,0,0,0,12,0V252.673A6,6,0,0,0,59,246.673Z"/><path d="M59,219.48a6,6,0,0,0-6,6v4.807a6,6,0,1,0,12,0V225.48A6,6,0,0,0,59,219.48Z"/><path d="M491.093,159H358.75l2.492-56.917a5.817,5.817,0,0,0,5.758-6v-8.34A15.433,15.433,0,0,0,351.437,72H320V54.922a5.781,5.781,0,0,0-3.5-5.561l-14.683-6a6.032,6.032,0,0,0-4.663,11.122L308,58.965V72h-6.437A15.433,15.433,0,0,0,286,87.744v8.34a5.817,5.817,0,0,0,5.758,6L294.25,159H156.331a13.877,13.877,0,0,0,.532-3h13.393A5.952,5.952,0,0,0,176,149.811V127.964A5.756,5.756,0,0,0,170.256,122H157v-4.487c0-3.314-2.782-5.513-6.1-5.513h-46.16A5.388,5.388,0,0,0,99,117.513v37.48A14.466,14.466,0,0,0,99.317,159H21.086A6.1,6.1,0,0,0,15,165.086v36.753A6.179,6.179,0,0,0,21.161,208H27V404.762A6.256,6.256,0,0,0,33.238,411H176v3h-6.933C153.866,414,141,425.944,141,441.145v21.933c0,3.314,3.186,5.922,6.5,5.922h18c3.314,0,5.5-2.608,5.5-5.922V445.145c0-.864,1.2-1.145,2.067-1.145h35.866c.864,0,1.067.281,1.067,1.145v17.933c0,3.314,3.186,5.922,6.5,5.922h18c3.314,0,5.5-2.608,5.5-5.922V441.145A26.816,26.816,0,0,0,212.933,414H206v-3H356v3h-6.933C333.866,414,321,425.944,321,441.145v21.933c0,3.314,3.186,5.922,6.5,5.922h18c3.314,0,5.5-2.608,5.5-5.922V445.145c0-.864,1.2-1.145,2.067-1.145h35.866c.864,0,1.067.281,1.067,1.145v17.933c0,3.314,3.186,5.922,6.5,5.922h18c3.314,0,5.5-2.608,5.5-5.922V441.145A26.816,26.816,0,0,0,392.933,414H386v-3h92.822A6.2,6.2,0,0,0,485,404.822V208h5.914A6.1,6.1,0,0,0,497,201.914V164.907A5.907,5.907,0,0,0,491.093,159ZM157,134h7v10h-7ZM298,87.744A3.44,3.44,0,0,1,301.563,84h49.874A3.44,3.44,0,0,1,355,87.744V90H298ZM305.166,136l-.649-14h43.966l-.649,14Zm42.1,12-.459,10H306.2l-.458-10Zm-43.318-38-.391-8h45.892l-.392,8ZM111,124h34v30.993A3.064,3.064,0,0,1,142.319,158h-28.99c-1.426,0-2.329-1.582-2.329-3.007ZM212.933,426A14.808,14.808,0,0,1,228,441.145V457h-6V445.145A12.807,12.807,0,0,0,208.933,432H173.067C165.586,432,159,437.664,159,445.145V457h-6V441.145c0-8.584,7.483-15.145,16.067-15.145ZM188,414V383h6v31Zm-26.1-43a7.842,7.842,0,0,1,7.6-5h43a7.842,7.842,0,0,1,7.6,5ZM188,299h6v55h-6Zm-56-12v-3.723A13.97,13.97,0,0,1,146.161,269h89.678A13.97,13.97,0,0,1,250,283.277V287ZM392.933,426A14.808,14.808,0,0,1,408,441.145V457h-6V445.145A12.807,12.807,0,0,0,388.933,432H353.067C345.586,432,339,437.664,339,445.145V457h-6V441.145c0-8.584,7.483-15.145,16.067-15.145ZM368,414V383h6v31Zm-26.1-43a7.842,7.842,0,0,1,7.6-5h43a7.842,7.842,0,0,1,7.6,5ZM368,299h6v55h-6Zm-56-12v-3.723A13.97,13.97,0,0,1,326.161,269h89.678A13.97,13.97,0,0,1,430,283.277V287Zm173-91H115a6,6,0,0,0,0,12H473V399H386V383h20.5c3.314,0,5.5-2.608,5.5-5.922v-3.5A19.244,19.244,0,0,0,392.5,354H386V299h50.445c3.313,0,5.555-3.054,5.555-6.367v-9.356A25.979,25.979,0,0,0,415.839,257H326.161A25.979,25.979,0,0,0,300,283.277v9.356c0,3.313,2.242,6.367,5.555,6.367H356v55h-6.5c-11.028,0-20.5,8.55-20.5,19.578v3.5c0,3.314,3.186,5.922,6.5,5.922H356v16H206V383h20.5c3.314,0,5.5-2.608,5.5-5.922v-3.5A19.244,19.244,0,0,0,212.5,354H206V299h50.445c3.313,0,5.555-3.054,5.555-6.367v-9.356A25.979,25.979,0,0,0,235.839,257H146.161A25.979,25.979,0,0,0,120,283.277v9.356c0,3.313,2.242,6.367,5.555,6.367H176v55h-6.5c-11.028,0-20.5,8.55-20.5,19.578v3.5c0,3.314,3.186,5.922,6.5,5.922H176v16H39V208H75a6,6,0,0,0,0-12H27V171H485Z"/></svg>
