<?xml version="1.0" encoding="UTF-8"?>
<svg xmlns="http://www.w3.org/2000/svg" id="Layer_1" data-name="Layer 1" viewBox="0 0 512 512" width="512" height="512"><path d="M43,192.14a6,6,0,0,0-6,6v3.409a6,6,0,0,0,12,0V198.14A6,6,0,0,0,43,192.14Z"/><path d="M43,214.549a6,6,0,0,0-6,6v93.468a6,6,0,0,0,12,0V220.549A6,6,0,0,0,43,214.549Z"/><path d="M496.838,141H447.4a6.79,6.79,0,0,0-6.4,6.491V175H405V164.472a20.672,20.672,0,0,0,14-19.713V111.877A5.7,5.7,0,0,0,413.231,106H384.013A5.908,5.908,0,0,0,378,111.877v32.882a20.332,20.332,0,0,0,15,19.713V175H349V164.472a20.332,20.332,0,0,0,15-19.713V111.877A5.908,5.908,0,0,0,357.987,106H328.769A5.7,5.7,0,0,0,323,111.877v32.882a20.672,20.672,0,0,0,14,19.713V175H289V121.714c0-8.764-2.675-17.048-8.035-23.33-.553-.648-.858-1.276-1.45-1.865A20.352,20.352,0,0,1,274,82.047V48.855A6.042,6.042,0,0,0,267.813,43H248.167A6.024,6.024,0,0,0,242,48.855V82.388c0,5.424-1.732,10.586-5.317,14.164C230.324,102.9,227,112.072,227,121.714V175H71V147.491A6.79,6.79,0,0,0,64.6,141H15.162C11.849,141,9,144.177,9,147.491V463.145A6.02,6.02,0,0,0,15.162,469H496.838A6.02,6.02,0,0,0,503,463.145V147.491C503,144.177,500.151,141,496.838,141ZM390,118h17v10H390Zm0,26.759V140h17v4.759a8.5,8.5,0,1,1-17,0ZM335,118h17v10H335Zm0,26.759V140h17v4.759a8.5,8.5,0,1,1-17,0Zm-96-23.045c0-6.479,2.041-12.555,6.162-16.67C250.984,99.232,254,90.974,254,82.388V55h8V82.047a32.4,32.4,0,0,0,9.048,22.976c.365.363.679.528,1.021.928A23.963,23.963,0,0,1,277.407,120H259.99c-3.314,0-5.99,3.135-5.99,6.449V175H239ZM277,132v43H266V132ZM88.938,457H76.318L86.6,323h12.62Zm12.041,0,10.277-134h35.2l10.277,134Zm67.793,0L158.489,323h12.62l10.283,134Zm174.456,0h-12.62l10.248-134h12.62ZM327,311V298H440v13Zm28.25,146,10.261-134h35.268L411.04,457Zm67.812,0L412.814,323h12.62l10.248,134ZM491,457H447.727L437.469,323h8.2c3.314,0,6.332-2.229,6.332-5.542V292.19a6.456,6.456,0,0,0-6.332-6.19H320.622c-3.314,0-5.622,2.877-5.622,6.19v25.268A5.312,5.312,0,0,0,320.622,323h8.2L318.566,457H193.418L183.144,323h8.234A5.622,5.622,0,0,0,197,317.378V292.19a6.209,6.209,0,0,0-6.19-6.19H115a6,6,0,0,0,0,12h70v13H72V298h9a6,6,0,0,0,0-12H66.332A6.35,6.35,0,0,0,60,292.332v25.126A5.542,5.542,0,0,0,65.542,323h9.024L64.294,457H21V153H59v28.227A5.48,5.48,0,0,0,64.6,187H447.4a5.48,5.48,0,0,0,5.6-5.773V153h38Z"/></svg>
