<svg height="480pt" viewBox="0 0 480 480" width="480pt" xmlns="http://www.w3.org/2000/svg"><path d="m480 216h-336v-48c0-2.121094-.84375-4.15625-2.34375-5.65625l-13.65625-13.65625v-28.6875c0-4.417969-3.582031-8-8-8h-24c-4.417969 0-8 3.582031-8 8v28.6875l-8 8-8-8v-28.6875c0-4.417969-3.582031-8-8-8h-24c-4.417969 0-8 3.582031-8 8v28.6875l-13.65625 13.65625c-1.5 1.5-2.34375 3.535156-2.34375 5.65625v48h-16v48h16v208c0 4.417969 3.582031 8 8 8h432c4.417969 0 8-3.582031 8-8v-208h16zm-392-16h40v16h-40zm13.65625-42.34375c1.5-1.5 2.34375-3.535156 2.34375-5.65625v-24h8v24c0 2.121094.84375 4.15625 2.34375 5.65625l13.65625 13.65625v12.6875h-40v-12.6875zm-56 0c1.5-1.5 2.34375-3.535156 2.34375-5.65625v-24h8v24c0 2.121094.84375 4.15625 2.34375 5.65625l13.65625 13.65625v12.6875h-40v-12.6875zm-13.65625 42.34375h40v16h-40zm64 264v-40c0-4.417969 3.582031-8 8-8h16v48zm40 0v-48h16c4.417969 0 8 3.582031 8 8v40zm72 0v-40c0-4.417969 3.582031-8 8-8h16v48zm40 0v-48h16c4.417969 0 8 3.582031 8 8v40zm72 0v-40c0-4.417969 3.582031-8 8-8h16v48zm40 0v-48h16c4.417969 0 8 3.582031 8 8v40zm88 0h-48v-40c0-13.253906-10.746094-24-24-24h-16v-72h16c13.253906 0 24-10.746094 24-24s-10.746094-24-24-24h-48c-13.253906 0-24 10.746094-24 24s10.746094 24 24 24h16v72h-16c-13.253906 0-24 10.746094-24 24v40h-16v-40c0-13.253906-10.746094-24-24-24h-16v-72h16c13.253906 0 24-10.746094 24-24s-10.746094-24-24-24h-48c-13.253906 0-24 10.746094-24 24s10.746094 24 24 24h16v72h-16c-13.253906 0-24 10.746094-24 24v40h-16v-40c0-13.253906-10.746094-24-24-24h-16v-72h16c13.253906 0 24-10.746094 24-24s-10.746094-24-24-24h-48c-13.253906 0-24 10.746094-24 24s10.746094 24 24 24h16v72h-16c-13.253906 0-24 10.746094-24 24v40h-48v-200h416zm-104-152h-16c-4.417969 0-8-3.582031-8-8s3.582031-8 8-8h48c4.417969 0 8 3.582031 8 8s-3.582031 8-8 8zm-112 0h-16c-4.417969 0-8-3.582031-8-8s3.582031-8 8-8h48c4.417969 0 8 3.582031 8 8s-3.582031 8-8 8zm-112 0h-16c-4.417969 0-8-3.582031-8-8s3.582031-8 8-8h48c4.417969 0 8 3.582031 8 8s-3.582031 8-8 8zm344-64h-448v-16h448zm0 0"/><path d="m40 96h80c3.234375 0 6.152344-1.949219 7.390625-4.9375s.550781-6.429688-1.734375-8.71875l-37.65625-37.65625v-44.6875h-16v44.6875l-37.65625 37.65625c-2.285156 2.289062-2.972656 5.730469-1.734375 8.71875s4.15625 4.9375 7.390625 4.9375zm40-36.6875 20.6875 20.6875h-41.375zm0 0"/><path d="m360 96h80c3.234375 0 6.152344-1.949219 7.390625-4.9375s.550781-6.429688-1.734375-8.71875l-37.65625-37.65625v-44.6875h-16v44.6875l-37.65625 37.65625c-2.285156 2.289062-2.972656 5.730469-1.734375 8.71875s4.15625 4.9375 7.390625 4.9375zm40-36.6875 20.6875 20.6875h-41.375zm0 0"/></svg>